<svg id="visual" viewBox="0 0 1920 1080" width="1920" height="1080" xmlns="http://www.w3.org/2000/svg" xmlns:xlink="http://www.w3.org/1999/xlink" version="1.1"><path d="M0 930L40 937.5C80 945 160 960 240 967.5C320 975 400 975 480 962.3C560 949.7 640 924.3 720 901.8C800 879.3 880 859.7 960 855C1040 850.3 1120 860.7 1200 878.8C1280 897 1360 923 1440 926.3C1520 929.7 1600 910.3 1680 909.5C1760 908.7 1840 926.3 1880 935.2L1920 944L1920 1081L1880 1081C1840 1081 1760 1081 1680 1081C1600 1081 1520 1081 1440 1081C1360 1081 1280 1081 1200 1081C1120 1081 1040 1081 960 1081C880 1081 800 1081 720 1081C640 1081 560 1081 480 1081C400 1081 320 1081 240 1081C160 1081 80 1081 40 1081L0 1081Z" fill="#003664"></path><path d="M0 991L40 992.7C80 994.3 160 997.7 240 982.2C320 966.7 400 932.3 480 921.3C560 910.3 640 922.7 720 935.8C800 949 880 963 960 957.8C1040 952.7 1120 928.3 1200 931.3C1280 934.3 1360 964.7 1440 959.3C1520 954 1600 913 1680 893C1760 873 1840 874 1880 874.5L1920 875L1920 1081L1880 1081C1840 1081 1760 1081 1680 1081C1600 1081 1520 1081 1440 1081C1360 1081 1280 1081 1200 1081C1120 1081 1040 1081 960 1081C880 1081 800 1081 720 1081C640 1081 560 1081 480 1081C400 1081 320 1081 240 1081C160 1081 80 1081 40 1081L0 1081Z" fill="#001122"></path><path d="M0 1000L40 1005.7C80 1011.3 160 1022.7 240 1025.3C320 1028 400 1022 480 1023.7C560 1025.3 640 1034.7 720 1039C800 1043.3 880 1042.7 960 1035.3C1040 1028 1120 1014 1200 999C1280 984 1360 968 1440 975.2C1520 982.3 1600 1012.7 1680 1014.3C1760 1016 1840 989 1880 975.5L1920 962L1920 1081L1880 1081C1840 1081 1760 1081 1680 1081C1600 1081 1520 1081 1440 1081C1360 1081 1280 1081 1200 1081C1120 1081 1040 1081 960 1081C880 1081 800 1081 720 1081C640 1081 560 1081 480 1081C400 1081 320 1081 240 1081C160 1081 80 1081 40 1081L0 1081Z" fill="#000d1b"></path></svg>